<svg id="Layer_1" data-name="Layer 1" xmlns="http://www.w3.org/2000/svg" viewBox="0 0 453.17 321.18"><defs><style>.cls-1{fill:#f0efef;}</style></defs><title>wallpaper</title><path class="cls-1" d="M213,156.44c-6.38-8.9-14.9-21.55-7.63-32.44,3.43-5.13,10.93-7.05,16.73-7.85,6.37-.88,18.13,3.05,13.69,11.82l2.74,1.16a253,253,0,0,0,8.78-43.26c1.4-12.47.5-31.94,15.82-36,19.42-5.14,12.69,23.38,10.52,32.78a228.92,228.92,0,0,1-14.89,43.6,1.5,1.5,0,0,0,2.59,1.51c1.28-2,2.71-4.18,4.73-5.47,3.79-2.43,7.51.09,9.38,3.45,2.31,4.16,2.26,9.52,1,14a24.57,24.57,0,0,1-18.24,17.33c-1.89.41-1.09,3.3.8,2.89,12.49-2.71,22-14.81,21.27-27.71-.32-5.29-2.82-11.86-8.37-13.64-5.94-1.9-10.23,3.22-13.12,7.63l2.59,1.51a231.5,231.5,0,0,0,17.1-53.43c1.88-10,3.42-26.81-10.8-27.89-13.73-1-20.24,12.67-21.81,24.12-1.28,9.35-1.77,18.77-3.33,28.1a252.44,252.44,0,0,1-6.88,29.66c-.47,1.6,2,2.69,2.74,1.16,2.74-5.42.15-11.75-5-14.71-6.8-3.89-16.59-1.36-23.22,1.69S199.92,125.7,199.73,133c-.25,9.48,5.4,17.62,10.68,25,1.11,1.56,3.72.06,2.59-1.51Z" transform="translate(-1.54 1.82)"/><path class="cls-1" d="M247.74,70.62l23.7,13.52A1.5,1.5,0,0,0,273,81.55L249.26,68a1.5,1.5,0,0,0-1.51,2.59Z" transform="translate(-1.54 1.82)"/><path class="cls-1" d="M269.85,50.76a34.32,34.32,0,0,1-5.73,15.34c-1.08,1.61,1.52,3.11,2.59,1.51a37.49,37.49,0,0,0,6.14-16.85c.22-1.91-2.78-1.9-3,0Z" transform="translate(-1.54 1.82)"/><path class="cls-1" d="M236,119.73a56.32,56.32,0,0,0-6.6-21.65c-.92-1.7-3.51-.18-2.59,1.51A52.41,52.41,0,0,1,233,119.73c.19,1.9,3.19,1.92,3,0Z" transform="translate(-1.54 1.82)"/><path class="cls-1" d="M223.66,121.93a47.76,47.76,0,0,0-7.37-10.22c-1.33-1.41-3.45.72-2.12,2.12a44.74,44.74,0,0,1,6.9,9.61c.91,1.7,3.5.19,2.59-1.51Z" transform="translate(-1.54 1.82)"/><path class="cls-1" d="M209.85,126.24a14.52,14.52,0,0,1-13.62-5.48c-1.21-1.5-3.32.63-2.12,2.12a17.5,17.5,0,0,0,16.54,6.25c1.9-.29,1.09-3.18-.8-2.89Z" transform="translate(-1.54 1.82)"/><path class="cls-1" d="M271.47,125.74l11.2-4.49c1.77-.71,1-3.61-.8-2.89l-11.2,4.49c-1.77.71-1,3.61.8,2.89Z" transform="translate(-1.54 1.82)"/><path class="cls-1" d="M267.88,138.06l15,2.08c1.89.26,2.7-2.63.8-2.89l-15-2.08c-1.89-.26-2.7,2.63-.8,2.89Z" transform="translate(-1.54 1.82)"/><path class="cls-1" d="M261.86,151.12a83.39,83.39,0,0,0,13.25,11.49c1.59,1.11,3.09-1.49,1.51-2.59A79.72,79.72,0,0,1,264,149c-1.32-1.42-3.44.71-2.12,2.12Z" transform="translate(-1.54 1.82)"/><path class="cls-1" d="M353.72,159.51c10.54-13.76,35.55-3.41,46.42,4.63A55.14,55.14,0,0,1,417,184.54c3.6,7.48,6.81,17.61,5.32,26s-13.09,11.29-20.51,10.65c-11.82-1-9.39-11.86-12.51-20-4.24-11.13-17.48-15-28.33-14.8-1.93,0-1.93,3,0,3,7.26-.16,15.18,1.39,20.83,6.29,6.39,5.54,4.76,12.93,7.48,20.06,4.36,11.42,20.31,9.74,29,4.8,11.94-6.79,7-24.23,2.66-34.44A58.63,58.63,0,0,0,390,154.91c-11.71-5-29.9-8.66-38.89,3.08-1.17,1.53,1.43,3,2.59,1.51Z" transform="translate(-1.54 1.82)"/><path class="cls-1" d="M339.13,170.53c-2.81,13.55,1,34.3,12.7,43.17,10.75,8.17,26.32,3,31.21-9.21.72-1.79-2.18-2.57-2.89-.8-5.06,12.65-21.6,14.41-30,4.23-7.51-9.14-10.51-25.25-8.16-36.59.39-1.88-2.5-2.69-2.89-.8Z" transform="translate(-1.54 1.82)"/><path class="cls-1" d="M396.18,201.68a8,8,0,0,0-6.76,1.47,1.51,1.51,0,0,0,1.16,2.74q16.92-2.71,33.63-6.48c1.88-.43,1.09-3.32-.8-2.89Q406.7,200.3,389.78,203l1.16,2.74,4.45-1.17c1.89.31,2.7-2.58.8-2.89Z" transform="translate(-1.54 1.82)"/><path class="cls-1" d="M413.36,220.89a12.28,12.28,0,0,0-.13-10.69c-.84-1.74-3.43-.22-2.59,1.51a9,9,0,0,1,.13,7.66c-.79,1.75,1.8,3.27,2.59,1.51Z" transform="translate(-1.54 1.82)"/><path class="cls-1" d="M345.41,199.63a39.9,39.9,0,0,1-8.67,15.31c-1.29,1.43.82,3.56,2.12,2.12a43.45,43.45,0,0,0,9.44-16.63c.56-1.85-2.33-2.64-2.89-.8Z" transform="translate(-1.54 1.82)"/><path class="cls-1" d="M358.59,213.66a33.15,33.15,0,0,1-5.87,13.75c-1.13,1.57,1.47,3.06,2.59,1.51a35.17,35.17,0,0,0,6.17-14.47c.34-1.89-2.55-2.7-2.89-.8Z" transform="translate(-1.54 1.82)"/><path class="cls-1" d="M370.44,198.4a25.53,25.53,0,0,0,9.48,13.13c1.56,1.14,3.06-1.46,1.51-2.59a22.16,22.16,0,0,1-8.1-11.33c-.58-1.83-3.48-1.05-2.89.8Z" transform="translate(-1.54 1.82)"/><path class="cls-1" d="M345.25,192.05l-9.06,4.89c-1.7.92-.19,3.51,1.51,2.59l9.06-4.89c1.7-.92.19-3.51-1.51-2.59Z" transform="translate(-1.54 1.82)"/><path class="cls-1" d="M358.88,205.9c2.47,1.92,2.72,4.29,4,6.83a31,31,0,0,0,3.49,4.81c2.44,3.14,7,7,8.16,10.85.57,1.84,3.46,1.06,2.89-.8-1.19-3.88-5.3-7.57-7.75-10.68-1.46-1.84-3.27-3.75-4.3-5.89-1.41-2.93-1.57-5.07-4.36-7.25-1.5-1.17-3.64.93-2.12,2.12Z" transform="translate(-1.54 1.82)"/><path class="cls-1" d="M341.54,82.62c9.68,7.37,23,4.21,33.26-.31,12.64-5.59,24.32-13.7,35.1-22.28l-2.36-.3c10.72,14.67,34,13.33,41.29-4.15,4.11-9.91-2.66-15.92-8.53-23.23-6.13-7.63-12.43-16.88-22.14-20.17C405.7,8,385.45,18.79,391.62,33.73c1.21,2.92,2.87,5.19.64,8.12C389,46.15,382.5,49,377.73,51.27a152.07,152.07,0,0,1-14.9,5.93c-4.6,1.61-9.71,2.7-14,5.1S338,71,339.2,76.76c1.28,6.24,8.44,1.64,11.24-.54,1.52-1.18-.61-3.29-2.12-2.12s-5.35,4.47-6.2,1.69c-.58-1.87,1.86-5.09,2.91-6.4,4.43-5.51,11.48-6.83,17.84-9a136.51,136.51,0,0,0,20.7-8.67C387.78,49.39,394,46.22,396,41.47c1.25-3-.12-5.51-1.31-8.25-2.94-6.74,1.17-13.28,7.33-16.66,17.34-9.51,29.92,10.13,39.18,21.65,4.14,5.16,7.71,9.14,4.94,16a20.87,20.87,0,0,1-9.27,10.37c-9.22,5.09-20.62,2-26.72-6.38a1.54,1.54,0,0,0-2.36-.3,181.05,181.05,0,0,1-29.68,19.5c-10.29,5.3-24.7,10.48-35,2.61-1.54-1.17-3,1.44-1.51,2.59Z" transform="translate(-1.54 1.82)"/><path class="cls-1" d="M351.28,64.58l10.61,14.29c1.14,1.53,3.74,0,2.59-1.51L353.87,63.06c-1.14-1.53-3.74,0-2.59,1.51Z" transform="translate(-1.54 1.82)"/><path class="cls-1" d="M414.68,4a28.66,28.66,0,0,1-3.51,13.34l2.59,1.51c2-4.51,1.75-9.61,3.72-14.1.77-1.75-1.81-3.28-2.59-1.51-2,4.51-1.75,9.61-3.72,14.1-.76,1.72,1.65,3.25,2.59,1.51A32.07,32.07,0,0,0,417.68,4C417.71,2.11,414.71,2.11,414.68,4Z" transform="translate(-1.54 1.82)"/><path class="cls-1" d="M437.61,42.81l7.05-12a1.5,1.5,0,0,0-2.59-1.51L435,41.3a1.5,1.5,0,0,0,2.59,1.51Z" transform="translate(-1.54 1.82)"/><path class="cls-1" d="M439.21,58.11a18.52,18.52,0,0,0,14.07,4.39c1.9-.21,1.92-3.21,0-3A15.57,15.57,0,0,1,441.33,56c-1.47-1.23-3.6.88-2.12,2.12Z" transform="translate(-1.54 1.82)"/><path class="cls-1" d="M424.59,23.8A32.87,32.87,0,0,1,438,12.34c1.75-.82.22-3.41-1.51-2.59A35.75,35.75,0,0,0,422,22.29c-1.08,1.61,1.52,3.11,2.59,1.51Z" transform="translate(-1.54 1.82)"/><path class="cls-1" d="M417,64.42a35.81,35.81,0,0,0,8.1,17.79c1.24,1.48,3.35-.65,2.12-2.12a33,33,0,0,1-7.33-16.47c-.29-1.9-3.18-1.09-2.89.8Z" transform="translate(-1.54 1.82)"/><path class="cls-1" d="M220.21,251.54c2.77-3.12,6.4,0,7.37,2.71.82,2.25.26,5.06-.09,7.36-.5,3.24-1.07,6.45-1.39,9.72a104.73,104.73,0,0,0,.27,23.23c1.12,9,4.8,21,15.61,22.09,4,.42,6.87-1,8.34-4.78C253,305,253.95,297,255.26,289.8s2.33-14.19,3.12-21.33q.58-5.26,1-10.53c.09-1.25.6-15.12,2.81-14,1.73.85,3.25-1.74,1.51-2.59-3.54-1.74-5.9.87-6.59,4.27-.73,3.59-.4,7.74-.66,11.39q-.41,5.76-1,11.49-1.45,13.18-4.1,26.2-1.24,6.13-2.75,12.2c-.77,3.11-.79,6.37-4.94,6.87-2,.24-4.3-.77-5.92-1.79-7.45-4.74-8.33-15.24-8.85-23.18a116.92,116.92,0,0,1,1.56-26.37c.71-4.47,1.29-9.94-2.58-13.18-2.92-2.44-7.1-2.73-9.71.2-1.28,1.44.84,3.57,2.12,2.12Z" transform="translate(-1.54 1.82)"/><path class="cls-1" d="M225.22,221c-17.61,1.44-32.57,14.19-35.47,31.88-1,6.11-1.64,16.78,3.69,21.29,6.73,5.69,18.31,7.25,26.77,7.55,1.93.07,1.93-2.93,0-3-7.14-.25-16.11-1.43-22.31-5.34-7.23-4.56-6.46-15.48-4.59-22.87A35.66,35.66,0,0,1,225.22,224c1.91-.16,1.93-3.16,0-3Z" transform="translate(-1.54 1.82)"/><path class="cls-1" d="M259.66,226.88c8.52,6.09,14.23,18.67,16.69,28.61,3,12.11-6.24,23.88-19,22.93-1.93-.14-1.92,2.86,0,3,11.91.88,23.31-9.22,22.72-21.44-.34-6.88-3.74-13.69-6.66-19.83s-6.59-11.81-12.26-15.86c-1.57-1.12-3.07,1.48-1.51,2.59Z" transform="translate(-1.54 1.82)"/><path class="cls-1" d="M234.87,297.24l-.22-.31a1.55,1.55,0,0,0-1.69-.69,2.2,2.2,0,0,0-1.72,1.65,1.47,1.47,0,0,0,.39,1.46c3.17,3,11.21.91,15.06.3a1.51,1.51,0,0,0,.9-2.2l-.06-.09a1.54,1.54,0,0,0-1.69-.69c-2.06.71-3,3.57-4.92,4.22l1.69.69-.06-.09a1.51,1.51,0,0,0-2.8.76v15.67a1.5,1.5,0,0,0,3,0V302.23l-2.8.76.06.09a1.54,1.54,0,0,0,1.69.69c2.06-.71,3-3.57,4.92-4.22l-1.69-.69.06.09.9-2.2a60.76,60.76,0,0,1-6.39.71q-1.14.07-2.28.08a3,3,0,0,0-3.45,1.59l-1.69-.69.22.31c1.12,1.55,3.72.06,2.59-1.51Z" transform="translate(-1.54 1.82)"/><path class="cls-1" d="M263.69,267.9a14.49,14.49,0,0,0,9.14,14.45c1.79.73,2.56-2.17.8-2.89a11.48,11.48,0,0,1-6.94-11.56c.14-1.93-2.86-1.92-3,0Z" transform="translate(-1.54 1.82)"/><path class="cls-1" d="M208.91,272.54l-6.27,21.92a1.5,1.5,0,0,0,2.89.8l6.27-21.92a1.5,1.5,0,0,0-2.89-.8Z" transform="translate(-1.54 1.82)"/><path class="cls-1" d="M192.88,264.82q-9.6,7.21-18.48,15.28c-1.43,1.3.7,3.42,2.12,2.12q8.59-7.82,17.87-14.81c1.53-1.15,0-3.75-1.51-2.59Z" transform="translate(-1.54 1.82)"/><path class="cls-1" d="M263.22,251.52a36.38,36.38,0,0,0,16.49,6.66c2.37.31,9.3.92,7.8-3.56-.61-1.82-3.51-1-2.89.8.09.28-9.92-1.39-10.77-1.68a34.73,34.73,0,0,1-9.12-4.82c-1.57-1.13-3.07,1.47-1.51,2.59Z" transform="translate(-1.54 1.82)"/><path class="cls-1" d="M269.76,264.75a23.23,23.23,0,0,0,17,12.31c1.89.3,2.7-2.59.8-2.89a20.45,20.45,0,0,1-15.18-10.93c-.89-1.71-3.48-.2-2.59,1.51Z" transform="translate(-1.54 1.82)"/><path class="cls-1" d="M199,245.9a44.14,44.14,0,0,1-19.3,1.36c-1.89-.29-2.7,2.6-.8,2.89a47.65,47.65,0,0,0,20.9-1.36c1.85-.54,1.06-3.44-.8-2.89Z" transform="translate(-1.54 1.82)"/><path class="cls-1" d="M252.78,279.31l3,9c.61,1.82,3.51,1,2.89-.8l-3-9c-.61-1.82-3.51-1-2.89.8Z" transform="translate(-1.54 1.82)"/><path class="cls-1" d="M12.82,175.76c-3.51-3.34-7-7.18-8-12.06-1.22-5.62,2.57-13.29,9.26-12,4,.78,7,4.52,9.63,7.27a37.47,37.47,0,0,0,8.18,6.69,39,39,0,0,0,21,4.77c9-.37,18.61-5.6,25.9,2.06,10.46,11,17.86,45.43-2.12,50.63A15.9,15.9,0,0,1,63.84,221c-4-2.65-8.36-8.2-7-13.27,1.08-4.13,5.72-9,1.73-13.05s-12.5-2.53-17.65-3.79a65.58,65.58,0,0,1-28.07-15.12c-1.43-1.29-3.56.83-2.12,2.12a69.86,69.86,0,0,0,27.8,15.47,55.32,55.32,0,0,0,10.35,1.51c2.14.19,4.88.17,6.72,1.46,3.17,2.22.28,6-.86,8.59-3.09,7.17,1.46,14.67,7.62,18.68A19,19,0,0,0,83.75,223c8.07-5.87,8.7-16.88,7.65-25.95s-3.89-19.87-10.5-26.71c-7.7-8-16.17-4-25.75-3.08-12.52,1.19-22.21-3.24-30.83-12-5.59-5.67-14.19-10.37-20.14-2.23-6.35,8.69,0,18.54,6.54,24.8C12.1,179.21,14.23,177.09,12.82,175.76Z" transform="translate(-1.54 1.82)"/><path class="cls-1" d="M68.07,226.08v1l1.1-1.45a1.19,1.19,0,0,1,1.18.4l.39.66c0,.07,0,.88-.11,1,0,0,0-.08.07-.11l.18-.24a2.74,2.74,0,0,0,.34-.58,1.6,1.6,0,0,0-2-2.12,1.5,1.5,0,1,0,.8,2.89,1.19,1.19,0,0,1-1.18-.4l-.39-.66c0-.07,0-.88.11-1,0,0,0,.08-.07.11l-.18.24a2.74,2.74,0,0,0-.34.58,1.6,1.6,0,0,0,2,2.12,1.54,1.54,0,0,0,1.1-1.45v-1a1.5,1.5,0,0,0-3,0Z" transform="translate(-1.54 1.82)"/><path class="cls-1" d="M58.22,212.29l-3.33,6-1.55,2.79-.89,1.6q-1.09,1,.43,1.17l.39,1.46-.13.06-1.82.23.23.11c1.74.82,3.26-1.76,1.51-2.59l-.23-.11a1.54,1.54,0,0,0-1.82.23c-1.78,2.11.72,4.56,2.81,2.72,1.45-1.28,2.28-3.69,3.21-5.36l3.77-6.79c.94-1.69-1.65-3.2-2.59-1.51Z" transform="translate(-1.54 1.82)"/><path class="cls-1" d="M82.22,218.1A19.89,19.89,0,0,0,88,234.63a1.5,1.5,0,0,0,2.12-2.12,17,17,0,0,1-4.95-14.41c.23-1.91-2.78-1.9-3,0Z" transform="translate(-1.54 1.82)"/><path class="cls-1" d="M68.1,210.67A14.15,14.15,0,0,1,63.51,217c-1.51,1.21.63,3.32,2.12,2.12A17,17,0,0,0,71,211.47c.65-1.82-2.25-2.61-2.89-.8Z" transform="translate(-1.54 1.82)"/><path class="cls-1" d="M83.54,196.64a24.34,24.34,0,0,0,12.4,8.69c1.85.57,2.64-2.33.8-2.89a20.94,20.94,0,0,1-10.61-7.31c-1.16-1.51-3.76,0-2.59,1.51Z" transform="translate(-1.54 1.82)"/><path class="cls-1" d="M59.3,204.54l.26-.15-1.16.15q-.62-1.13-1.22-.1-.62.38-1.26.71a19.52,19.52,0,0,1-2.62,1.13,21.59,21.59,0,0,1-5.6,1.14c-1.91.14-1.93,3.14,0,3,3.83-.28,9.18-1.31,12-4.14,1.67-1.66.9-6-2-4.33a1.5,1.5,0,0,0,1.51,2.59Z" transform="translate(-1.54 1.82)"/><path class="cls-1" d="M87,185.87l3-6c.86-1.72-1.73-3.24-2.59-1.51l-3,6c-.86,1.72,1.73,3.24,2.59,1.51Z" transform="translate(-1.54 1.82)"/><path class="cls-1" d="M72.3,204.41l4.93,12c.72,1.76,3.63,1,2.89-.8l-4.93-12c-.72-1.76-3.63-1-2.89.8Z" transform="translate(-1.54 1.82)"/><path class="cls-1" d="M7.49,156.16l2.82,2.36a1.5,1.5,0,0,0,2.12-2.12l-1.62-2.08a1.51,1.51,0,0,0-2.51.66c-.83,5.53,1.23,11.9,3.93,16.81a1.51,1.51,0,0,0,2.05.54A27.09,27.09,0,0,0,23,162.89c.94-1.69-1.65-3.2-2.59-1.51a23.84,23.84,0,0,1-7.61,8.35l2.05.54c-2.23-4-4.31-9.93-3.62-14.49l-2.51.66,1.62,2.08,2.12-2.12L9.62,154c-1.47-1.23-3.61.88-2.12,2.12Z" transform="translate(-1.54 1.82)"/><path class="cls-1" d="M31.6,74.29c.85,6,3.08,11.52,9,14.07,5.59,2.43,12.06,1.52,17.87.58a1.46,1.46,0,0,0,1-1C62.66,74.41,66.35,59,79.12,51.36c4.79-2.88,18.35-7.22,19.36,1.6C99,57.89,96.05,62,99,66.75c5.27,8.5,19.3,6.09,26.84,2.51,8.62-4.1,12.46-15,13.59-23.91,2.22-17.5-6.85-35.94-23-43.6C98.21-6.88,78.06,1.41,63.21,12.89,45,27,29.07,49.83,31.55,73.89c.2,1.9,3.2,1.92,3,0-2.34-22.7,12.31-44.12,29.32-57.74C80,3.21,103.44-5.69,121.68,8.53A39.87,39.87,0,0,1,136,32.4c1.92,10,.16,23.17-7.05,30.9-4.59,4.91-15.3,7.33-21.68,5.73-3.9-1-6.85-3.87-6.78-8.1,0-2.67,1-5.28.93-8-.24-9.84-13-8.89-19.49-6.36C71.05,50.88,64.52,61,60.79,71.7c-1.2,3.44-2.15,7-3,10.5-1.13,4.55-2.18,4.45-6.95,4.65-3.4.15-7.07,0-10.12-1.74-4.35-2.42-5.56-7.05-6.21-11.62C34.23,71.59,31.34,72.4,31.6,74.29Z" transform="translate(-1.54 1.82)"/><path class="cls-1" d="M101.16,62.9v12a1.5,1.5,0,0,0,3,0v-12a1.5,1.5,0,0,0-3,0Z" transform="translate(-1.54 1.82)"/><path class="cls-1" d="M114,61.93,126.5,80.56c1.07,1.59,3.67.09,2.59-1.51L116.54,60.42c-1.07-1.59-3.67-.09-2.59,1.51Z" transform="translate(-1.54 1.82)"/><path class="cls-1" d="M125.78,45.83a26.4,26.4,0,0,0,9.09,7.43c1.72.86,3.24-1.73,1.51-2.59a24.46,24.46,0,0,1-8.49-7c-1.18-1.52-3.29.61-2.12,2.12Z" transform="translate(-1.54 1.82)"/><path class="cls-1" d="M111.23,37.91l-1,13c-.15,1.93,2.85,1.92,3,0l1-13c.15-1.93-2.85-1.92-3,0Z" transform="translate(-1.54 1.82)"/><path class="cls-1" d="M124.43,55.23a26.47,26.47,0,0,0,6.06,9.84c1.35,1.39,3.47-.74,2.12-2.12a23,23,0,0,1-5.29-8.52c-.63-1.81-3.53-1-2.89.8Z" transform="translate(-1.54 1.82)"/><path class="cls-1" d="M131.33,28.1,141.08,31c1.86.54,2.65-2.35.8-2.89l-9.75-2.85c-1.86-.54-2.65,2.35-.8,2.89Z" transform="translate(-1.54 1.82)"/><path class="cls-1" d="M37.7,58.53c-3.79-1.27-3,3.23-1.22,4.84,5.95,5.37,16.13,7.88,23.79,8.94,1.89.26,2.7-2.63.8-2.89A55.86,55.86,0,0,1,49.63,66.7a54.11,54.11,0,0,1-5.83-2.51q-1.5-.76-3-1.62a4.85,4.85,0,0,0-3.94-1.16c1.83.61,2.62-2.28.8-2.89Z" transform="translate(-1.54 1.82)"/><path class="cls-1" d="M49.32,83.38a36,36,0,0,0,1.86-8.23h-3l0,13.75a1.5,1.5,0,0,0,3,0l0-13.75c0-2-2.79-1.87-3,0a32.49,32.49,0,0,1-1.75,7.43c-.65,1.82,2.25,2.61,2.89.8Z" transform="translate(-1.54 1.82)"/></svg>